<svg xmlns="http://www.w3.org/2000/svg" version="1.1" xmlns:xlink="http://www.w3.org/1999/xlink" width="1000" height="1000"><g clip-path="url(#SvgjsClipPath1071)"><rect width="1000" height="1000" fill="#ffffff"></rect><g transform="matrix(0.9765625,0,0,0.9765625,0,0)"><svg xmlns="http://www.w3.org/2000/svg" version="1.1" xmlns:xlink="http://www.w3.org/1999/xlink" width="1024" height="1024"><svg version="1.1" xmlns="http://www.w3.org/2000/svg" width="1024" height="1024">
<path d="M0 0 C1.17948463 0.00212242 1.17948463 0.00212242 2.38279724 0.00428772 C4.8581039 0.00981953 7.33331512 0.0223585 9.80859375 0.03515625 C11.50195181 0.04018009 13.1953113 0.04474144 14.88867188 0.04882812 C19.00784845 0.05976647 23.126955 0.07698263 27.24609375 0.09765625 C29.84745086 3.98483072 29.5251713 8.10156484 29.51953125 12.59765625 C29.5398437 14.30729793 29.56069488 16.01693329 29.58203125 17.7265625 C29.60447625 20.40093315 29.6210438 23.07505171 29.62695312 25.74951172 C29.68790476 42.13635961 31.70547332 54.82314194 43.27734375 67.28515625 C55.4843927 78.96146394 69.41387055 81.79795541 85.703125 81.47265625 C97.11737656 80.93031951 106.49097125 76.3253563 115.24609375 69.09765625 C116.19742188 68.34935547 116.19742188 68.34935547 117.16796875 67.5859375 C126.65333497 59.25476407 130.14045465 47.23522186 131.24609375 35.09765625 C131.5184086 29.16218978 131.43776422 23.22448906 131.37109375 17.28515625 C131.36103272 15.70638596 131.35191245 14.12760938 131.34375 12.54882812 C131.3237332 8.73162428 131.2850825 4.91471074 131.24609375 1.09765625 C142.06790706 0.22705962 152.79419842 -0.04175906 163.64624023 -0.01586914 C165.33316038 -0.01558628 167.02008065 -0.01574693 168.70700073 -0.01631165 C173.2369708 -0.01659576 177.76691379 -0.01076206 182.29687762 -0.00373769 C187.04940318 0.00256072 191.80192953 0.00310474 196.55445862 0.00428772 C205.5319127 0.00738206 214.50935444 0.0155696 223.48680311 0.02563721 C233.71670071 0.03685762 243.94659893 0.04232367 254.17650115 0.04733264 C275.19970554 0.05775401 296.22289887 0.07531631 317.24609375 0.09765625 C317.92852365 4.6551444 318.35832761 8.97197894 318.30859375 13.58203125 C318.30085938 14.76410156 318.293125 15.94617188 318.28515625 17.1640625 C318.26582031 18.98744141 318.26582031 18.98744141 318.24609375 20.84765625 C318.22062519 23.2799038 318.19957838 25.71220289 318.18359375 28.14453125 C318.16619141 29.75086426 318.16619141 29.75086426 318.1484375 31.38964844 C318.12227044 34.1959082 318.12227044 34.1959082 319.24609375 37.09765625 C319.18421875 38.08765625 319.12234375 39.07765625 319.05859375 40.09765625 C318.95216509 50.18709289 325.18986189 59.50770967 331.62109375 66.78515625 C342.63306071 76.48617476 353.10188758 81.50459837 367.93359375 81.41015625 C368.80411377 81.40741699 369.67463379 81.40467773 370.5715332 81.40185547 C377.65529758 81.28801276 384.56377047 80.63997121 391.24609375 78.09765625 C391.57609375 77.43765625 391.90609375 76.77765625 392.24609375 76.09765625 C393.84765625 75.23828125 393.84765625 75.23828125 395.87109375 74.34765625 C407.13534036 68.82596673 412.99135425 59.00091238 417.51953125 47.58203125 C419.2805343 41.56053695 419.38522782 35.53401303 419.34375 29.3203125 C419.34233505 28.50896347 419.3409201 27.69761444 419.33946228 26.86167908 C419.33390732 24.29446578 419.32136342 21.72734277 419.30859375 19.16015625 C419.30357292 17.40950648 419.29901104 15.65885532 419.29492188 13.90820312 C419.28395268 9.63798655 419.26671957 5.36783666 419.24609375 1.09765625 C438.59550123 -4.76979112 466.90374725 -0.40845803 484.5078125 8.8046875 C489.80996953 11.79815623 494.8681368 14.84130922 499.24609375 19.09765625 C499.24609375 19.75765625 499.24609375 20.41765625 499.24609375 21.09765625 C500.23609375 21.42765625 501.22609375 21.75765625 502.24609375 22.09765625 C503.82192107 24.02760207 505.23171565 25.91538634 506.62109375 27.97265625 C507.0195752 28.55909912 507.41805664 29.14554199 507.82861328 29.74975586 C520.89163535 49.41878277 520.40126898 70.96120415 520.37548828 93.65966797 C520.37684626 95.68666108 520.37862841 97.71365395 520.38079834 99.74064636 C520.38532377 105.20093829 520.38360386 110.66121113 520.38041925 116.12150335 C520.37787232 121.85477592 520.38023947 127.58804694 520.38180542 133.32131958 C520.38361944 142.93915091 520.38124004 152.55697453 520.37646484 162.17480469 C520.37101441 173.28064078 520.37279364 184.38645854 520.37829125 195.49229419 C520.38283317 205.05189542 520.38346792 214.61149114 520.38085258 224.17109311 C520.37929695 229.87040134 520.37907666 235.56970096 520.38238907 241.26900864 C520.38528378 246.62234415 520.3832627 251.97565605 520.37749481 257.32898903 C520.3761762 259.28931578 520.37654603 261.24964453 520.37875748 263.20997047 C520.38150415 265.89260087 520.37804518 268.57515632 520.37307739 271.25778198 C520.37530811 272.02676091 520.37753884 272.79573984 520.37983716 273.58802116 C520.34460756 283.4463982 519.67699513 291.19013159 513.24609375 299.09765625 C506.17121373 304.93109506 499.23703745 305.88693757 490.24609375 305.09765625 C483.66769785 303.35892198 478.92576835 298.68678362 475.24609375 293.09765625 C473.66398958 289.02038317 472.99929934 285.63922151 473.01904297 281.27587891 C473.01919403 280.15516998 473.01934509 279.03446106 473.01950073 277.87979126 C473.0298233 276.68582733 473.04014587 275.4918634 473.05078125 274.26171875 C473.05502609 272.4099855 473.05502609 272.4099855 473.05935669 270.52084351 C473.07052853 266.58801476 473.09562811 262.65541588 473.12109375 258.72265625 C473.1322555 256.05208666 473.14025256 253.38151924 473.1484375 250.7109375 C473.1704581 244.173099 473.20390616 237.63539405 473.24609375 231.09765625 C472.58609375 231.09765625 471.92609375 231.09765625 471.24609375 231.09765625 C471.40851562 230.55109375 471.5709375 230.00453125 471.73828125 229.44140625 C472.31745367 226.76830275 472.37860493 224.33172565 472.37109375 221.59765625 C472.37496094 220.19 472.37496094 220.19 472.37890625 218.75390625 C472.26002243 216.37622995 471.92161097 214.37082529 471.24609375 212.09765625 C471.90609375 212.09765625 472.56609375 212.09765625 473.24609375 212.09765625 C473.24609375 188.33765625 473.24609375 164.57765625 473.24609375 140.09765625 C472.58609375 140.09765625 471.92609375 140.09765625 471.24609375 140.09765625 C471.24609375 139.43765625 471.24609375 138.77765625 471.24609375 138.09765625 C424.19199613 138.17589947 377.13790067 138.25532591 330.08381653 138.34132385 C329.03982227 138.34323137 329.03982227 138.34323137 327.97473721 138.34517743 C312.85024047 138.37281935 297.72574413 138.40068234 282.60124822 138.42877319 C275.18460501 138.44254684 267.76796171 138.45627161 260.35131836 138.4699707 C259.61325835 138.47133479 258.87519833 138.47269887 258.11477286 138.47410429 C234.17585258 138.51832532 210.23692809 138.55931686 186.2979993 138.59864038 C161.70539425 138.63905467 137.11279705 138.68271363 112.52020513 138.73047736 C109.04968243 138.73721629 105.57915967 138.74391798 102.10863686 138.750597 C101.08402575 138.75257059 101.08402575 138.75257059 100.03871544 138.75458405 C89.02636795 138.77569999 78.01401747 138.79337766 67.00166207 138.80978156 C55.94067393 138.82633085 44.87969626 138.84655447 33.81872102 138.87032466 C27.82153578 138.88310398 21.8243589 138.89423522 15.8271637 138.90107536 C10.34418882 138.90736415 4.86124275 138.91817539 -0.62171634 138.93268955 C-2.61233216 138.93714168 -4.60295261 138.93988823 -6.59357319 138.94081824 C-9.28567643 138.94231747 -11.97769517 138.94985513 -14.66978168 138.95899105 C-15.45444729 138.95796838 -16.2391129 138.95694571 -17.04755625 138.95589206 C-20.21788304 138.97221584 -22.72327052 139.08744434 -25.75390625 140.09765625 C-25.7411006 140.96634307 -25.72829494 141.83502989 -25.71510124 142.73004055 C-25.03166073 189.71684235 -24.66657316 236.69559024 -24.75493336 283.68758821 C-24.76172429 287.35455409 -24.76777775 291.02152049 -24.77361298 294.68848801 C-24.80975589 317.15458665 -24.85635459 339.62064695 -24.92529297 362.08666992 C-24.95979708 373.36338776 -24.98359171 384.64007606 -24.9955014 395.91684097 C-25.00352224 402.95269022 -25.02454063 409.98833378 -25.05570626 417.02411664 C-25.07170588 421.34894481 -25.07512615 425.67371456 -25.07493591 429.99856949 C-25.07735237 431.99283736 -25.08490585 433.98710686 -25.09806442 435.98133278 C-25.11530134 438.70609379 -25.11386224 441.43024927 -25.10794067 444.15504456 C-25.11736132 444.93511968 -25.12678196 445.7151948 -25.13648808 446.51890856 C-25.07835877 454.54101584 -23.03864595 461.64074151 -17.5 467.59375 C-12.02808767 472.30669462 -5.73378949 474.22128374 1.38273907 474.2251482 C2.42668825 474.22815585 3.47063743 474.2311635 4.54622144 474.23426229 C5.69182453 474.23251192 6.83742763 474.23076154 8.01774597 474.22895813 C9.84482062 474.2321317 9.84482062 474.2321317 11.70880586 474.23536938 C14.3849087 474.23929446 17.06094086 474.2413874 19.73703957 474.24040413 C24.09134454 474.23881121 28.44562658 474.24401386 32.79992676 474.25003052 C39.12245362 474.25814406 45.44497645 474.26308757 51.76750755 474.26632118 C61.76358614 474.27181902 71.75963063 474.28871805 81.75569153 474.30766296 C85.1759786 474.31401978 88.59626577 474.32032821 92.01655293 474.32664013 C92.87134503 474.32822389 93.72613713 474.32980765 94.60683202 474.33143941 C104.33790184 474.34937732 114.06897407 474.36560276 123.80004883 474.38061523 C125.13440535 474.38267904 125.13440535 474.38267904 126.49571858 474.38478454 C140.90650327 474.40670745 155.31727919 474.41746907 169.72807761 474.42498598 C184.52579949 474.43306045 199.32344613 474.45636186 214.12112504 474.49293965 C223.24672533 474.5149516 232.37217085 474.5246333 241.49779633 474.51843932 C247.7543891 474.51526175 254.01084982 474.52661447 260.26740172 474.54933373 C263.87563856 474.56198565 267.48358119 474.56819082 271.0918293 474.55691719 C275.00790149 474.54483928 278.92348512 474.56369428 282.83952332 474.58540344 C283.9739728 474.57696091 285.10842229 474.56851837 286.27724904 474.55982 C294.46464649 474.64371576 300.72319875 476.12276714 307.05859375 481.47265625 C312.20741976 487.65124746 314.61780048 491.87296245 314.453125 499.95703125 C313.72978089 507.43613639 309.8926841 513.286539 304.24609375 518.09765625 C296.52403243 522.1248648 288.97265353 522.67213209 280.41401672 522.60559082 C279.16634008 522.61183078 277.91866344 522.61807075 276.63317841 522.6244998 C273.19972591 522.63761702 269.76715897 522.6330017 266.33376181 522.62055492 C262.6192016 522.61145732 258.90471549 522.62549768 255.19017029 522.63647461 C247.92376749 522.65421708 240.65753041 522.65043822 233.39112125 522.63882405 C227.47998918 522.62976964 221.56890337 522.6285744 215.65776634 522.63291931 C214.81461576 522.63353224 213.97146517 522.63414518 213.10276457 522.63477668 C211.38955113 522.63605567 209.67633771 522.63735253 207.9631243 522.63866705 C191.914152 522.65006124 175.86527123 522.6369792 159.81631394 522.61546558 C146.0728906 522.59761193 132.32960251 522.60068665 118.58618164 522.61914062 C102.6001719 522.64059601 86.6142424 522.64894563 70.62822026 522.63669157 C68.91998018 522.63541748 67.21174009 522.63416 65.50349998 522.63291931 C64.6631785 522.63230221 63.82285702 522.63168511 62.95707125 522.63104931 C57.06186415 522.62760916 51.16670832 522.63339614 45.27150917 522.64283752 C38.07411296 522.65411162 30.87689101 522.65090538 23.6795145 522.62971455 C20.01365114 522.61927377 16.34807721 522.61496115 12.68221664 522.62831116 C-11.76263514 522.7097215 -34.16154546 521.04668276 -52.75390625 503.09765625 C-59.90409015 495.22523155 -59.90409015 495.22523155 -61.84765625 490.359375 C-62.52930548 487.93332384 -62.52930548 487.93332384 -64.75390625 487.09765625 C-65.87424655 484.814354 -66.83394324 482.58632359 -67.75390625 480.22265625 C-68.01429688 479.62324219 -68.2746875 479.02382813 -68.54296875 478.40625 C-75.71230278 459.97599231 -73.04347119 437.00613122 -73.01535559 417.5632441 C-73.01078868 412.88294167 -73.01783555 408.2026536 -73.02331543 403.52235413 C-73.03216544 394.37913864 -73.03030737 385.23595616 -73.02449015 376.09273943 C-73.01995737 368.65815483 -73.01936771 361.22357942 -73.02153778 353.78899384 C-73.02184425 352.72738491 -73.02215071 351.66577598 -73.02246647 350.57199709 C-73.02310597 348.41482721 -73.0237544 346.25765732 -73.02441165 344.10048744 C-73.03010178 323.91830688 -73.0235772 303.73614454 -73.01281092 283.55396697 C-73.00387143 266.26106653 -73.00543329 248.96819293 -73.01464844 231.67529297 C-73.02536545 211.55483584 -73.02955801 191.43439463 -73.02342391 171.31393504 C-73.02278686 169.16630856 -73.02215812 167.01868208 -73.02153778 164.8710556 C-73.02122923 163.8145886 -73.02092068 162.75812159 -73.02060278 161.66964044 C-73.01888052 154.24752219 -73.02178069 146.8254141 -73.02649689 139.40329742 C-73.03212142 130.35353759 -73.03055608 121.30381243 -73.0199354 112.25405654 C-73.01470061 107.64254003 -73.0125844 103.03108121 -73.0192337 98.4195652 C-73.02524064 94.18943144 -73.02184075 89.95940826 -73.0112786 85.72928438 C-73.00906458 84.20806227 -73.01013524 82.6868306 -73.01503018 81.16561475 C-73.08765039 56.69971112 -68.63173017 36.90081546 -51.34765625 18.6015625 C-37.11982784 4.8665655 -19.28952864 -0.13435649 0 0 Z " fill="#0066FF" transform="translate(288.75390625,251.90234375)"></path>
<path d="M0 0 C1.1484375 1.90234375 1.1484375 1.90234375 2 4 C2.29261719 4.68578125 2.58523438 5.3715625 2.88671875 6.078125 C4.84630753 11.39291212 5.65270437 15.51757624 4 21 C1.0109149 26.71574676 -3.01038951 31.69316323 -7.125 36.625 C-8.28217301 38.03049058 -9.43840711 39.43675465 -10.59375 40.84375 C-11.16738281 41.54113281 -11.74101563 42.23851562 -12.33203125 42.95703125 C-14.80220015 45.98255428 -17.21867278 49.04860052 -19.625 52.125 C-20.07198242 52.69573242 -20.51896484 53.26646484 -20.97949219 53.85449219 C-22.32080591 55.56877077 -23.66067192 57.28416974 -25 59 C-30.78553652 66.41192453 -36.61458564 73.7798893 -42.5625 81.0625 C-46.4667889 85.84392621 -50.31875117 90.65423148 -54.0625 95.5625 C-58.12280668 100.88426119 -62.27552771 106.12278354 -66.46679688 111.34179688 C-71.23527815 117.28255523 -75.9434585 123.26928713 -80.64111328 129.26611328 C-83.38122667 132.76239163 -86.12700996 136.25422265 -88.87304688 139.74584961 C-91.18248761 142.68315928 -93.48777957 145.62355474 -95.78515625 148.5703125 C-100.90073219 155.12284797 -106.11217577 161.56756232 -111.46484375 167.9296875 C-113.74470097 170.69080888 -115.96124905 173.48667135 -118.15649414 176.31469727 C-135.50326042 198.64952484 -135.50326042 198.64952484 -146.94921875 200.46875 C-155.17466699 200.89002776 -161.33556038 198.64600302 -167.7890625 193.6015625 C-172.85770667 188.86922648 -176.94104369 183.0885626 -181.171875 177.6171875 C-183.72810601 174.32338096 -186.37424295 171.12452172 -189.0625 167.9375 C-192.92976347 163.33710602 -196.61610448 158.63484584 -200.25244141 153.85302734 C-203.8457738 149.14930897 -207.62767501 144.61996378 -211.4375 140.08984375 C-216.57948748 133.93330259 -221.45773544 127.55792272 -226.37939453 121.22509766 C-227.75086484 119.46094349 -229.12470354 117.69867277 -230.5 115.9375 C-230.94931885 115.3612085 -231.3986377 114.78491699 -231.86157227 114.19116211 C-234.63157714 110.66412496 -237.49293116 107.23851722 -240.43212891 103.8515625 C-248.06405953 95.04966079 -253.36744668 87.58475223 -253.296875 75.67578125 C-252.81661936 71.34716133 -251.03927247 67.80009007 -249 64 C-248.505 63.01 -248.505 63.01 -248 62 C-247.34 62 -246.68 62 -246 62 C-245.67 61.01 -245.34 60.02 -245 59 C-238.25973538 54.75612968 -231.59424191 53.28445743 -223.6484375 54.30078125 C-216.60291127 56.1306264 -212.08364147 61.05317041 -207 66 C-205.29467389 67.59855346 -203.58009067 69.18657626 -201.86230469 70.77172852 C-200.72692104 71.81951722 -199.5946161 72.87065453 -198.46582031 73.92553711 C-196.25262363 75.98479306 -194.06720573 77.95130339 -191.6171875 79.7265625 C-191.08351563 80.14679688 -190.54984375 80.56703125 -190 81 C-190 81.66 -190 82.32 -190 83 C-189.42765625 83.24363281 -188.8553125 83.48726562 -188.265625 83.73828125 C-185.59566462 85.22517298 -183.86170993 86.98083908 -181.75 89.1875 C-176.97679158 94.07007817 -171.94201116 98.52225132 -166.72265625 102.91796875 C-165.98917969 103.54316406 -165.25570312 104.16835938 -164.5 104.8125 C-163.8296875 105.37582031 -163.159375 105.93914062 -162.46875 106.51953125 C-161 108 -161 108 -161 110 C-160.13375 110.37125 -160.13375 110.37125 -159.25 110.75 C-156.6997003 112.16683317 -154.98214299 113.87627537 -153 116 C-150.16196332 114.70051853 -148.02039548 113.30013543 -145.75 111.1640625 C-145.14720215 110.60001709 -144.5444043 110.03597168 -143.92333984 109.45483398 C-143.2886377 108.85098877 -142.65393555 108.24714355 -142 107.625 C-141.34080566 107.00375244 -140.68161133 106.38250488 -140.00244141 105.74243164 C-132.93368424 99.04934595 -126.01115775 92.20189004 -119.2890625 85.16015625 C-117 83 -117 83 -115 83 C-115 82.34 -115 81.68 -115 81 C-113.63671875 79.66015625 -113.63671875 79.66015625 -111.6875 78.0625 C-107.42465257 74.4631011 -103.5384439 70.5813202 -99.68237305 66.55688477 C-98.49090704 65.33509286 -97.24906136 64.16284669 -96 63 C-95.34 63 -94.68 63 -94 63 C-94 62.34 -94 61.68 -94 61 C-92.64331055 59.66674805 -92.64331055 59.66674805 -90.69921875 58.07421875 C-85.08930216 53.30436894 -79.97803568 48.05063147 -74.8125 42.8125 C-72.884495 40.857695 -70.95304633 38.90638463 -69.01953125 36.95703125 C-67.75266479 35.67276245 -67.75266479 35.67276245 -66.46020508 34.36254883 C-64 32 -64 32 -61.4987793 30.00268555 C-58.7888946 27.83080629 -56.42219848 25.48791434 -54 23 C-53.08677979 22.07106934 -52.17355957 21.14213867 -51.23266602 20.18505859 C-50.75189102 19.69460052 -50.27111603 19.20414246 -49.77577209 18.69882202 C-47.61324457 16.49577027 -45.44236729 14.30101866 -43.27124023 12.10644531 C-42.13117013 10.9512264 -40.99379847 9.79333824 -39.85913086 8.6328125 C-38.20618805 6.94331813 -36.54359718 5.26384761 -34.87890625 3.5859375 C-34.37871475 3.07026215 -33.87852325 2.55458679 -33.36317444 2.02328491 C-23.68100875 -7.66341433 -10.81738397 -8.48467115 0 0 Z " fill="#0066FF" transform="translate(839,583)"></path>
<path d="M0 0 C1.06149261 0.00045822 2.12298523 0.00091644 3.21664429 0.00138855 C5.4538485 0.00439552 7.69105091 0.01223485 9.92822266 0.0246582 C13.30509093 0.042803 16.68168198 0.04516819 20.05859375 0.04492188 C55.03271577 0.09622629 55.03271577 0.09622629 62.3984375 6.60546875 C67.55820248 12.46249927 68.82146234 16.9259588 68.88793945 24.6003418 C68.90719231 26.53836922 68.90719231 26.53836922 68.92683411 28.51554871 C68.93500392 29.92442437 68.94244719 31.33330442 68.94921875 32.7421875 C68.95329428 33.45543497 68.9573698 34.16868244 68.96156883 34.90354347 C68.98239958 38.68105399 68.99671249 42.45852853 69.00610352 46.23608398 C69.01714374 50.11849629 69.05152384 54.00033166 69.09127522 57.8825407 C69.11754758 60.88447563 69.12580482 63.88627545 69.12938499 66.8883152 C69.13422597 68.31832576 69.1457682 69.74833131 69.16442299 71.17822838 C69.27276521 80.03528469 69.31960255 88.31066748 62.96064758 95.09892273 C57.7525333 99.94228579 53.05847371 101.47538947 45.9362793 101.52099609 C44.94496506 101.53107193 44.94496506 101.53107193 43.93362427 101.54135132 C41.75905742 101.56027499 39.58480021 101.56425278 37.41015625 101.56640625 C35.88946916 101.57283879 34.36878329 101.57956748 32.84809875 101.58657837 C29.66310764 101.59853754 26.47822487 101.60226067 23.29321289 101.60107422 C19.22797843 101.60087126 15.16344488 101.6281547 11.09837627 101.66261864 C7.95749268 101.68494635 4.8167761 101.68890996 1.6758213 101.68785477 C0.17801311 101.69020262 -1.31980026 101.69897988 -2.81752968 101.7145195 C-11.89267002 101.79985339 -19.22892439 101.79240793 -26.3125 95.40625 C-26.75851562 94.79136719 -27.20453125 94.17648437 -27.6640625 93.54296875 C-28.35628906 92.63998047 -28.35628906 92.63998047 -29.0625 91.71875 C-32.89121069 83.9515885 -32.58333872 75.43044004 -32.5546875 66.98046875 C-32.55660095 65.72717773 -32.5585144 64.47388672 -32.56048584 63.18261719 C-32.56218658 59.87183541 -32.55419981 56.56124475 -32.54296875 53.25048828 C-32.53906553 51.2320352 -32.54295753 49.21375603 -32.54980469 47.1953125 C-32.56221069 43.2902837 -32.56064949 39.38550851 -32.5546875 35.48046875 C-32.55873596 34.28647461 -32.56278442 33.09248047 -32.56695557 31.86230469 C-32.50504395 20.75065261 -31.6346044 12.70032558 -23.6015625 4.48046875 C-17.03481612 -0.63603255 -7.91124735 -0.05683608 0 0 Z " fill="#0066FF" transform="translate(352.2890625,570.76953125)"></path>
<path d="M0 0 C1.94652466 -0.00287018 1.94652466 -0.00287018 3.93237305 -0.00579834 C6.66557637 -0.00872936 9.39864804 -0.00451771 12.13183594 0.00488281 C15.61151107 0.01627624 19.09087753 0.00970583 22.57054138 -0.00226212 C25.92205143 -0.01128235 29.27348122 -0.00494186 32.625 0 C34.48161255 -0.00607269 34.48161255 -0.00607269 36.37573242 -0.01226807 C46.21212115 0.04066484 54.29826888 0.31924907 61.65234375 7.41015625 C68.7114159 15.29970748 67.47110603 26.30294061 67.48046875 36.234375 C67.48546135 38.08669739 67.48546135 38.08669739 67.49055481 39.97644043 C67.49560088 42.57852813 67.49796385 45.18062226 67.49780273 47.78271484 C67.4999927 51.75238715 67.518183 55.7217829 67.53710938 59.69140625 C67.54004312 62.22656155 67.54202804 64.76171817 67.54296875 67.296875 C67.55015427 68.4772937 67.55733978 69.6577124 67.56474304 70.87390137 C67.53674691 81.01775838 66.63784803 88.94027697 59.125 96.453125 C50.87875954 101.76736885 42.27209571 101.72668656 32.71484375 101.69921875 C31.31197357 101.70379008 29.90910562 101.70909846 28.50624084 101.71510315 C25.58048341 101.7239895 22.65499963 101.72166133 19.72924805 101.71166992 C15.99812035 101.70016321 12.26793676 101.7204393 8.53693295 101.74958706 C5.6448019 101.7680129 2.75289475 101.76764442 -0.13928032 101.76194954 C-1.51426967 101.76179722 -2.88927507 101.76776674 -4.26420784 101.78024101 C-13.77714613 101.8544344 -19.98589479 101.21924756 -27.4375 94.953125 C-34.28034568 86.779726 -34.29657034 79.85352739 -34.25390625 69.55078125 C-34.25914817 68.01052984 -34.26542673 66.47028165 -34.27268982 64.93003845 C-34.2830689 61.70979656 -34.27856924 58.48999723 -34.26391602 55.26977539 C-34.2467362 51.15952884 -34.27022484 47.05068137 -34.30540562 42.94059086 C-34.32745272 39.76190572 -34.32592059 36.58355158 -34.3176403 33.40481377 C-34.31682468 31.89026798 -34.32361326 30.37569693 -34.33841133 28.86122322 C-34.42559159 18.32469292 -33.29596435 12.083565 -25.9375 4.390625 C-18.17793552 -0.68293639 -8.97524495 -0.02935664 0 0 Z " fill="#0066FF" transform="translate(497.6875,432.734375)"></path>
<path d="M0 0 C1.84664246 0.00068733 1.84664246 0.00068733 3.73059082 0.00138855 C6.32251963 0.00439731 8.91444684 0.0122421 11.50634766 0.0246582 C15.45612046 0.04291039 19.40565815 0.0451676 23.35546875 0.04492188 C25.88281451 0.04983823 28.41015869 0.05566706 30.9375 0.0625 C32.10962036 0.06361282 33.28174072 0.06472565 34.48937988 0.06587219 C54.16060796 0.17878694 54.16060796 0.17878694 60.96875 6.23046875 C65.65603979 12.09248874 67.08834441 16.99405754 67.11401367 24.44848633 C67.12039352 25.70691849 67.12677338 26.96535065 67.13334656 28.26191711 C67.1348756 29.63294435 67.13598936 31.0039721 67.13671875 32.375 C67.13993424 33.78740981 67.14329853 35.19981928 67.14680481 36.61222839 C67.15278788 39.57197847 67.15464561 42.53169938 67.15405273 45.49145508 C67.15395128 49.27074989 67.16758982 53.04985613 67.18482494 56.82910633 C67.19598439 59.74689073 67.19797072 62.66463015 67.19744301 65.5824337 C67.19861771 66.97498918 67.20301066 68.36754601 67.21077538 69.76008034 C67.26406782 80.30678217 67.23987501 87.54612025 59.83984375 95.5 C54.5441897 100.39765082 48.80940211 101.34444132 41.87426758 101.4074707 C40.64231155 101.42030594 39.41035553 101.43314117 38.1410675 101.44636536 C36.79847621 101.45453543 35.45588033 101.46197865 34.11328125 101.46875 C33.43313147 101.47282553 32.75298168 101.47690105 32.0522213 101.48110008 C28.44977502 101.50192798 24.84736642 101.51624194 21.24487305 101.52563477 C17.5440503 101.53667263 13.8438332 101.57105058 10.14322376 101.61080647 C7.28025784 101.63709058 4.41743346 101.6453371 1.55435753 101.64891624 C-0.4667941 101.65609054 -2.4878485 101.68247971 -4.50883484 101.70930481 C-13.38481223 101.68849298 -19.89885593 100.62821499 -26.84375 94.91796875 C-34.74470202 85.21108484 -34.18705489 75.95019354 -34.19921875 63.85546875 C-34.20254715 62.69096191 -34.20587555 61.52645508 -34.20930481 60.32666016 C-34.2143447 57.87598055 -34.21671405 55.42529415 -34.21655273 52.97460938 C-34.21874319 49.24207217 -34.23694143 45.50982895 -34.25585938 41.77734375 C-34.25879318 39.38671975 -34.26077806 36.99609436 -34.26171875 34.60546875 C-34.26890427 33.49896973 -34.27608978 32.3924707 -34.28349304 31.25244141 C-34.25168726 20.3832959 -33.19045712 12.50965743 -25.34375 4.48046875 C-18.31652025 -0.97125023 -8.41122554 -0.05156382 0 0 Z " fill="#0066FF" transform="translate(354.03125,432.76953125)"></path>
<path d="M0 0 C1.27311539 -0.00191345 2.54623077 -0.0038269 3.85792542 -0.00579834 C6.5399459 -0.00715431 9.22159718 -0.00451902 11.90356445 0.00488281 C15.31364119 0.01626464 18.72340252 0.0097131 22.13346767 -0.00226212 C25.42232249 -0.01129524 28.71114104 -0.00493934 32 0 C33.81605995 -0.00607269 33.81605995 -0.00607269 35.66880798 -0.01226807 C54.32151759 0.08986034 54.32151759 0.08986034 60.00390625 5.515625 C60.62136719 6.07765625 61.23882813 6.6396875 61.875 7.21875 C67.15406891 13.6072768 67.09844675 19.73442761 67.25390625 27.703125 C67.28661621 28.90018066 67.31932617 30.09723633 67.35302734 31.33056641 C67.44421137 34.97551518 67.51075126 38.61997265 67.56640625 42.265625 C67.58300293 43.31218262 67.59959961 44.35874023 67.61669922 45.43701172 C67.70442561 52.04898215 67.67549531 58.65413185 67.56640625 65.265625 C67.55383789 66.22355957 67.54126953 67.18149414 67.52832031 68.16845703 C67.48157743 71.01452614 67.40451204 73.85806332 67.31640625 76.703125 C67.3023877 77.5492334 67.28836914 78.3953418 67.27392578 79.26708984 C67.01961884 85.56909427 65.52474359 91.06054625 61.15551758 95.79418945 C55.94333958 100.39120875 51.43087489 101.51281433 44.6081543 101.57202148 C43.58757935 101.58450676 43.58757935 101.58450676 42.54638672 101.59724426 C40.30690715 101.62125226 38.06771943 101.63010528 35.828125 101.63671875 C34.26259783 101.64569272 32.69707151 101.6548147 31.13154602 101.66407776 C27.85240602 101.68054575 24.57336784 101.68826375 21.29418945 101.69116211 C17.10776231 101.69654103 12.9223023 101.73420901 8.73614788 101.77990627 C5.50261506 101.80976113 2.26931268 101.81688749 -0.96434593 101.81788826 C-2.506832 101.82207457 -4.04931976 101.83444474 -5.59166908 101.85540581 C-21.22531675 102.05094978 -21.22531675 102.05094978 -27.43359375 96.265625 C-32.37047673 91.06890607 -33.67941403 86.48506283 -33.72412109 79.39916992 C-33.73083832 78.72854019 -33.73755554 78.05791046 -33.74447632 77.36695862 C-33.76340265 75.15992732 -33.76737792 72.95320106 -33.76953125 70.74609375 C-33.77596358 69.20298643 -33.78269227 67.65988031 -33.78970337 66.11677551 C-33.80166319 62.88470637 -33.8053856 59.652744 -33.80419922 56.4206543 C-33.80399625 52.29488994 -33.83128023 48.16981614 -33.86574364 44.0442152 C-33.88806887 40.85700892 -33.89203503 37.66996725 -33.89097977 34.48269081 C-33.89332797 32.96255428 -33.90210723 31.44241268 -33.9176445 29.92235374 C-34.00327492 20.67852865 -33.77976076 13.74327588 -27.828125 6.2421875 C-27.04501953 5.57316406 -27.04501953 5.57316406 -26.24609375 4.890625 C-25.73691406 4.42914062 -25.22773438 3.96765625 -24.703125 3.4921875 C-17.18843263 -0.56910924 -8.28177228 -0.02764706 0 0 Z " fill="#0066FF" transform="translate(497.43359375,570.734375)"></path>
<path d="M0 0 C1.84096252 -0.00287018 1.84096252 -0.00287018 3.71911621 -0.00579834 C6.30086473 -0.00715271 8.88262023 -0.00350888 11.46435547 0.00488281 C15.39436277 0.01559261 19.323913 0.00496157 23.25390625 -0.0078125 C25.7734385 -0.00649077 28.29297047 -0.00392811 30.8125 0 C32.55823303 -0.00607269 32.55823303 -0.00607269 34.3392334 -0.01226807 C43.8631345 0.04191386 52.20389705 0.47053363 60.1171875 6.14453125 C66.65204949 13.89219514 66.48770219 22.59923343 66.40234375 32.30078125 C66.40249906 33.74849012 66.40399337 35.19619939 66.40675354 36.64390564 C66.4081309 39.66391599 66.39569055 42.6834476 66.37280273 45.70336914 C66.34439398 49.55545371 66.34717103 53.40674573 66.35989285 57.2588892 C66.36687901 60.24367428 66.35902789 63.22827924 66.34663582 66.21304131 C66.34215158 67.63266749 66.34175775 69.05231321 66.34570122 70.47194099 C66.37007673 86.96146161 66.37007673 86.96146161 60.92578125 93.7265625 C60.19746094 94.35820313 59.46914063 94.98984375 58.71875 95.640625 C58.00332031 96.28773438 57.28789063 96.93484375 56.55078125 97.6015625 C49.16486883 102.24912334 40.47856391 101.57245592 32.0625 101.56640625 C30.72546254 101.57030176 29.38842629 101.57463817 28.0513916 101.57939148 C25.26094535 101.58681635 22.47062571 101.58658915 19.68017578 101.58129883 C16.12292883 101.57550013 12.56620188 101.59246245 9.00904083 101.6156435 C6.25161768 101.63044649 3.49431803 101.63124384 0.73686218 101.62813377 C-1.20616961 101.62888921 -3.1491824 101.64270134 -5.09216309 101.65681458 C-13.65625247 101.61216934 -20.73501523 100.92719535 -27.40625 95.015625 C-28.04175781 94.47421875 -28.67726563 93.9328125 -29.33203125 93.375 C-33.39906025 88.50538656 -34.46905838 83.57137784 -34.49780273 77.35571289 C-34.50809761 76.37859093 -34.50809761 76.37859093 -34.51860046 75.38172913 C-34.53674813 73.25035159 -34.53304867 71.11971868 -34.52734375 68.98828125 C-34.5319114 67.49287175 -34.5372187 65.99746434 -34.54322815 64.50205994 C-34.55213562 61.37604211 -34.54976337 58.25028008 -34.53979492 55.12426758 C-34.52830864 51.13527372 -34.54852259 47.14716559 -34.57771206 43.158288 C-34.59613398 40.07228569 -34.59576977 36.9864933 -34.59007454 33.90044975 C-34.58992205 32.43056432 -34.59590594 30.960664 -34.60836601 29.49083138 C-34.67470767 20.3829789 -34.29136976 13.67449822 -28.5234375 6.2421875 C-20.506472 -0.72733527 -10.10544291 -0.03515271 0 0 Z " fill="#0066FF" transform="translate(642.09375,432.734375)"></path>
<path d="M0 0 C6.750673 6.750673 11.48873719 14.16745993 11.59466553 23.9090271 C11.59218811 24.60267365 11.58971069 25.29632019 11.5871582 26.01098633 C11.59226913 26.75818436 11.59738007 27.50538239 11.60264587 28.27522278 C11.61648231 30.73174171 11.61558928 33.18797811 11.61328125 35.64453125 C11.61717212 37.36317548 11.6215076 39.08181877 11.62626648 40.80046082 C11.63371641 44.39898803 11.63344682 47.99741712 11.62817383 51.59594727 C11.62238808 56.18891497 11.63929441 60.78147825 11.6625185 65.37437916 C11.67731137 68.92362281 11.67811989 72.47277039 11.67500877 76.02203941 C11.67551944 77.71438077 11.68070892 79.40672786 11.69082069 81.09903908 C11.75949672 94.20229584 10.89749736 104.448869 1.3125 114.3125 C-6.80308507 121.11004297 -15.15956761 123.91516249 -25.69921875 123.59375 C-37.05419217 122.52504662 -44.97026786 117.16561826 -52.1484375 108.49609375 C-60.04264428 97.29593743 -58.84272992 83.07040411 -58.85546875 69.9609375 C-58.85879715 68.74024567 -58.86212555 67.51955383 -58.86555481 66.26187134 C-58.87057945 63.70225395 -58.87296453 61.14263012 -58.87280273 58.58300781 C-58.87499823 54.6906454 -58.89322656 50.79856281 -58.91210938 46.90625 C-58.91504254 44.40364679 -58.91702785 41.90104225 -58.91796875 39.3984375 C-58.92874702 37.67456314 -58.92874702 37.67456314 -58.93974304 35.91586304 C-58.90251526 22.62511784 -57.20197216 11.9316678 -47.875 2 C-33.90151666 -11.1131756 -15.36090739 -9.64522092 0 0 Z " fill="#0066FF" transform="translate(392.6875,193.6875)"></path>
<path d="M0 0 C10.92935308 10.82834242 11.19875147 24.75797847 11.27787781 39.20581055 C11.27899063 40.42695557 11.28010345 41.64810059 11.28125 42.90625 C11.2862426 44.84141479 11.2862426 44.84141479 11.29133606 46.81567383 C11.29727551 49.5284916 11.29918119 52.24127776 11.29858398 54.95410156 C11.29848226 58.3998701 11.31216841 61.84543309 11.32935619 65.29115295 C11.34325495 68.62118773 11.34256723 71.9511867 11.34375 75.28125 C11.35093552 76.50239502 11.35812103 77.72354004 11.36552429 78.98168945 C11.33139808 91.90295869 10.07325313 102.65290734 0.96484375 112.390625 C-7.33456126 120.15184334 -15.41803615 122.50555899 -26.6953125 122.3671875 C-35.79009822 121.58795249 -43.45652657 117.47390177 -49.88671875 111.09375 C-59.7788892 98.90897352 -59.04096079 85.18633094 -59.0546875 70.1484375 C-59.0580159 68.85737091 -59.0613443 67.56630432 -59.06477356 66.2361145 C-59.07070592 63.52507692 -59.07261933 60.81407094 -59.07202148 58.10302734 C-59.07191956 54.65606837 -59.08562977 51.20931394 -59.10279369 47.76240349 C-59.11667204 44.43274559 -59.11600398 41.10312386 -59.1171875 37.7734375 C-59.12437302 36.55026825 -59.13155853 35.327099 -59.13896179 34.06686401 C-59.10555111 21.45074851 -57.45257397 10.36423677 -48.70703125 0.76171875 C-34.65841081 -12.11115878 -14.49195976 -11.81382557 0 0 Z " fill="#0066FF" transform="translate(681.88671875,194.90625)"></path>
<path d="" fill="#0D0E0C" transform="translate(0,0)"></path>
<path d="" fill="#080808" transform="translate(0,0)"></path>
<path d="" fill="#090708" transform="translate(0,0)"></path>
<path d="" fill="#0B0C0C" transform="translate(0,0)"></path>
<path d="" fill="#161515" transform="translate(0,0)"></path>
<path d="" fill="#171618" transform="translate(0,0)"></path>
<path d="" fill="#1A191B" transform="translate(0,0)"></path>
<path d="" fill="#10110E" transform="translate(0,0)"></path>
<path d="" fill="#191A19" transform="translate(0,0)"></path>
<path d="" fill="#171817" transform="translate(0,0)"></path>
<path d="" fill="#090706" transform="translate(0,0)"></path>
<path d="" fill="#060505" transform="translate(0,0)"></path>
<path d="" fill="#020301" transform="translate(0,0)"></path>
<path d="" fill="#1C1B1B" transform="translate(0,0)"></path>
<path d="" fill="#181B1C" transform="translate(0,0)"></path>
<path d="" fill="#040404" transform="translate(0,0)"></path>
<path d="" fill="#040304" transform="translate(0,0)"></path>
<path d="" fill="#020103" transform="translate(0,0)"></path>
<path d="" fill="#010403" transform="translate(0,0)"></path>
<path d="" fill="#030405" transform="translate(0,0)"></path>
<path d="" fill="#050305" transform="translate(0,0)"></path>
<path d="" fill="#040203" transform="translate(0,0)"></path>
<path d="" fill="#020404" transform="translate(0,0)"></path>
<path d="" fill="#010203" transform="translate(0,0)"></path>
<path d="" fill="#020404" transform="translate(0,0)"></path>
<path d="" fill="#020204" transform="translate(0,0)"></path>
<path d="" fill="#010303" transform="translate(0,0)"></path>
<path d="" fill="#181B19" transform="translate(0,0)"></path>
<path d="" fill="#0F0E10" transform="translate(0,0)"></path>
<path d="" fill="#050405" transform="translate(0,0)"></path>
<path d="" fill="#121211" transform="translate(0,0)"></path>
<path d="" fill="#030202" transform="translate(0,0)"></path>
<path d="" fill="#060606" transform="translate(0,0)"></path>
<path d="" fill="#0A0B0C" transform="translate(0,0)"></path>
<path d="" fill="#050505" transform="translate(0,0)"></path>
<path d="" fill="#050805" transform="translate(0,0)"></path>
<path d="" fill="#040403" transform="translate(0,0)"></path>
<path d="" fill="#070604" transform="translate(0,0)"></path>
<path d="" fill="#040403" transform="translate(0,0)"></path>
<path d="" fill="#060506" transform="translate(0,0)"></path>
<path d="" fill="#121012" transform="translate(0,0)"></path>
<path d="" fill="#060504" transform="translate(0,0)"></path>
<path d="" fill="#070507" transform="translate(0,0)"></path>
<path d="" fill="#060305" transform="translate(0,0)"></path>
<path d="" fill="#060707" transform="translate(0,0)"></path>
<path d="" fill="#100F10" transform="translate(0,0)"></path>
<path d="" fill="#0A0B0C" transform="translate(0,0)"></path>
<path d="" fill="#050403" transform="translate(0,0)"></path>
<path d="" fill="#050201" transform="translate(0,0)"></path>
<path d="" fill="#050303" transform="translate(0,0)"></path>
<path d="" fill="#040404" transform="translate(0,0)"></path>
<path d="" fill="#030102" transform="translate(0,0)"></path>
<path d="" fill="#030304" transform="translate(0,0)"></path>
<path d="" fill="#030202" transform="translate(0,0)"></path>
<path d="" fill="#040202" transform="translate(0,0)"></path>
<path d="" fill="#020201" transform="translate(0,0)"></path>
<path d="" fill="#050201" transform="translate(0,0)"></path>
<path d="" fill="#010101" transform="translate(0,0)"></path>
<path d="" fill="#040303" transform="translate(0,0)"></path>
<path d="" fill="#010202" transform="translate(0,0)"></path>
<path d="" fill="#010002" transform="translate(0,0)"></path>
<path d="" fill="#070606" transform="translate(0,0)"></path>
<path d="" fill="#050403" transform="translate(0,0)"></path>
<path d="" fill="#080706" transform="translate(0,0)"></path>
<path d="" fill="#010200" transform="translate(0,0)"></path>
<path d="" fill="#040403" transform="translate(0,0)"></path>
<path d="" fill="#050405" transform="translate(0,0)"></path>
<path d="" fill="#070509" transform="translate(0,0)"></path>
<path d="" fill="#020301" transform="translate(0,0)"></path>
<path d="" fill="#040202" transform="translate(0,0)"></path>
<path d="" fill="#030203" transform="translate(0,0)"></path>
<path d="" fill="#020003" transform="translate(0,0)"></path>
<path d="" fill="#040403" transform="translate(0,0)"></path>
<path d="" fill="#020102" transform="translate(0,0)"></path>
<path d="" fill="#010301" transform="translate(0,0)"></path>
<path d="" fill="#020203" transform="translate(0,0)"></path>
<path d="" fill="#020402" transform="translate(0,0)"></path>
<path d="" fill="#030102" transform="translate(0,0)"></path>
<path d="" fill="#040203" transform="translate(0,0)"></path>
<path d="" fill="#010201" transform="translate(0,0)"></path>
<path d="" fill="#010101" transform="translate(0,0)"></path>
<path d="" fill="#020102" transform="translate(0,0)"></path>
<path d="" fill="#010200" transform="translate(0,0)"></path>
<path d="" fill="#000002" transform="translate(0,0)"></path>
<path d="" fill="#020303" transform="translate(0,0)"></path>
<path d="" fill="#020101" transform="translate(0,0)"></path>
<path d="" fill="#040202" transform="translate(0,0)"></path>
<path d="" fill="#020300" transform="translate(0,0)"></path>
<path d="" fill="#030202" transform="translate(0,0)"></path>
<path d="" fill="#030200" transform="translate(0,0)"></path>
<path d="" fill="#050300" transform="translate(0,0)"></path>
<path d="" fill="#020300" transform="translate(0,0)"></path>
<path d="" fill="#010201" transform="translate(0,0)"></path>
<path d="" fill="#030200" transform="translate(0,0)"></path>
<path d="" fill="#020202" transform="translate(0,0)"></path>
<path d="" fill="#030101" transform="translate(0,0)"></path>
<path d="" fill="#010101" transform="translate(0,0)"></path>
<path d="" fill="#000201" transform="translate(0,0)"></path>
<path d="" fill="#060403" transform="translate(0,0)"></path>
<path d="" fill="#020302" transform="translate(0,0)"></path>
<path d="" fill="#060406" transform="translate(0,0)"></path>
<path d="" fill="#050504" transform="translate(0,0)"></path>
<path d="" fill="#050304" transform="translate(0,0)"></path>
<path d="" fill="#040304" transform="translate(0,0)"></path>
<path d="" fill="#050302" transform="translate(0,0)"></path>
<path d="" fill="#030303" transform="translate(0,0)"></path>
<path d="" fill="#040404" transform="translate(0,0)"></path>
<path d="" fill="#020302" transform="translate(0,0)"></path>
<path d="" fill="#030301" transform="translate(0,0)"></path>
<path d="" fill="#010201" transform="translate(0,0)"></path>
<path d="" fill="#050503" transform="translate(0,0)"></path>
<path d="" fill="#050503" transform="translate(0,0)"></path>
<path d="" fill="#141515" transform="translate(0,0)"></path>
<path d="" fill="#0D0F10" transform="translate(0,0)"></path>
<path d="" fill="#050405" transform="translate(0,0)"></path>
<path d="" fill="#151414" transform="translate(0,0)"></path>
<path d="" fill="#040403" transform="translate(0,0)"></path>
<path d="" fill="#030102" transform="translate(0,0)"></path>
<path d="" fill="#141414" transform="translate(0,0)"></path>
<path d="" fill="#040204" transform="translate(0,0)"></path>
<path d="" fill="#040401" transform="translate(0,0)"></path>
<path d="" fill="#161317" transform="translate(0,0)"></path>
<path d="" fill="#020405" transform="translate(0,0)"></path>
<path d="" fill="#030304" transform="translate(0,0)"></path>
<path d="" fill="#1B1B1C" transform="translate(0,0)"></path>
<path d="" fill="#191A1A" transform="translate(0,0)"></path>
<path d="" fill="#141415" transform="translate(0,0)"></path>
<path d="" fill="#1B191B" transform="translate(0,0)"></path>
<path d="" fill="#1A1D18" transform="translate(0,0)"></path>
<path d="" fill="#1C1E1C" transform="translate(0,0)"></path>
<path d="" fill="#070807" transform="translate(0,0)"></path>
<path d="" fill="#131213" transform="translate(0,0)"></path>
<path d="" fill="#1C1B1B" transform="translate(0,0)"></path>
</svg></svg></g></g><defs><clipPath id="SvgjsClipPath1071"><rect width="1000" height="1000" x="0" y="0" rx="500" ry="500"></rect></clipPath></defs></svg>